<mxfile host="app.diagrams.net" modified="2023-06-18T06:38:18.715Z" agent="Mozilla/5.0 (Windows NT 10.0; Win64; x64) AppleWebKit/537.36 (KHTML, like Gecko) Chrome/114.0.0.0 Safari/537.36" etag="zxH_haBE8ANAwHq52NcA" version="21.4.0" type="device">
  <diagram name="Page-1" id="42eCZd0SApIl8Cvrx7na">
    <mxGraphModel dx="1719" dy="443" grid="1" gridSize="10" guides="1" tooltips="1" connect="1" arrows="1" fold="1" page="1" pageScale="1" pageWidth="850" pageHeight="1100" math="0" shadow="0">
      <root>
        <mxCell id="0" />
        <mxCell id="1" parent="0" />
        <mxCell id="qqYguHeqG1et18vwYGOu-93" value="q0" style="ellipse;whiteSpace=wrap;html=1;aspect=fixed;" parent="1" vertex="1">
          <mxGeometry x="-755" y="370" width="40" height="40" as="geometry" />
        </mxCell>
        <mxCell id="qqYguHeqG1et18vwYGOu-94" value="q1" style="ellipse;whiteSpace=wrap;html=1;aspect=fixed;" parent="1" vertex="1">
          <mxGeometry x="-685" y="370" width="40" height="40" as="geometry" />
        </mxCell>
        <mxCell id="qqYguHeqG1et18vwYGOu-95" value="" style="group" parent="1" vertex="1" connectable="0">
          <mxGeometry x="-550" y="370" width="40" height="40" as="geometry" />
        </mxCell>
        <mxCell id="qqYguHeqG1et18vwYGOu-96" value="" style="ellipse;whiteSpace=wrap;html=1;aspect=fixed;" parent="qqYguHeqG1et18vwYGOu-95" vertex="1">
          <mxGeometry width="40" height="40" as="geometry" />
        </mxCell>
        <mxCell id="qqYguHeqG1et18vwYGOu-97" value="q2" style="ellipse;whiteSpace=wrap;html=1;aspect=fixed;" parent="qqYguHeqG1et18vwYGOu-95" vertex="1">
          <mxGeometry x="5" y="5" width="30" height="30" as="geometry" />
        </mxCell>
        <mxCell id="qqYguHeqG1et18vwYGOu-98" value="" style="endArrow=classic;html=1;rounded=0;" parent="1" source="qqYguHeqG1et18vwYGOu-93" edge="1">
          <mxGeometry width="50" height="50" relative="1" as="geometry">
            <mxPoint x="-685" y="330" as="sourcePoint" />
            <mxPoint x="-685" y="390" as="targetPoint" />
          </mxGeometry>
        </mxCell>
        <mxCell id="qqYguHeqG1et18vwYGOu-100" value="f" style="text;html=1;align=center;verticalAlign=middle;resizable=0;points=[];autosize=1;strokeColor=none;fillColor=none;" parent="1" vertex="1">
          <mxGeometry x="-720" y="360" width="30" height="30" as="geometry" />
        </mxCell>
        <mxCell id="qqYguHeqG1et18vwYGOu-102" value="for" style="text;html=1;align=center;verticalAlign=middle;resizable=0;points=[];autosize=1;strokeColor=none;fillColor=none;" parent="1" vertex="1">
          <mxGeometry x="-660" y="330" width="40" height="30" as="geometry" />
        </mxCell>
        <mxCell id="qqYguHeqG1et18vwYGOu-104" value="" style="endArrow=classic;html=1;rounded=0;" parent="1" target="qqYguHeqG1et18vwYGOu-93" edge="1">
          <mxGeometry width="50" height="50" relative="1" as="geometry">
            <mxPoint x="-775" y="390" as="sourcePoint" />
            <mxPoint x="-495" y="330" as="targetPoint" />
          </mxGeometry>
        </mxCell>
        <mxCell id="jdZAZop807KCjGfxknlb-1" value="" style="endArrow=classic;html=1;rounded=0;" edge="1" parent="1" source="qqYguHeqG1et18vwYGOu-94" target="jdZAZop807KCjGfxknlb-4">
          <mxGeometry width="50" height="50" relative="1" as="geometry">
            <mxPoint x="-705" y="400" as="sourcePoint" />
            <mxPoint x="-675" y="400" as="targetPoint" />
          </mxGeometry>
        </mxCell>
        <mxCell id="jdZAZop807KCjGfxknlb-3" value="o" style="text;html=1;align=center;verticalAlign=middle;resizable=0;points=[];autosize=1;strokeColor=none;fillColor=none;" vertex="1" parent="1">
          <mxGeometry x="-645" y="360" width="30" height="30" as="geometry" />
        </mxCell>
        <mxCell id="jdZAZop807KCjGfxknlb-4" value="q1" style="ellipse;whiteSpace=wrap;html=1;aspect=fixed;" vertex="1" parent="1">
          <mxGeometry x="-615" y="370" width="40" height="40" as="geometry" />
        </mxCell>
        <mxCell id="jdZAZop807KCjGfxknlb-6" value="" style="endArrow=classic;html=1;rounded=0;" edge="1" parent="1" source="jdZAZop807KCjGfxknlb-4" target="qqYguHeqG1et18vwYGOu-96">
          <mxGeometry width="50" height="50" relative="1" as="geometry">
            <mxPoint x="-635" y="400" as="sourcePoint" />
            <mxPoint x="-605" y="400" as="targetPoint" />
          </mxGeometry>
        </mxCell>
        <mxCell id="jdZAZop807KCjGfxknlb-7" value="r" style="text;html=1;align=center;verticalAlign=middle;resizable=0;points=[];autosize=1;strokeColor=none;fillColor=none;" vertex="1" parent="1">
          <mxGeometry x="-580" y="360" width="30" height="30" as="geometry" />
        </mxCell>
        <mxCell id="jdZAZop807KCjGfxknlb-8" value="q0" style="ellipse;whiteSpace=wrap;html=1;aspect=fixed;" vertex="1" parent="1">
          <mxGeometry x="-680" y="470" width="40" height="40" as="geometry" />
        </mxCell>
        <mxCell id="jdZAZop807KCjGfxknlb-10" value="" style="group" vertex="1" connectable="0" parent="1">
          <mxGeometry x="-610" y="470" width="40" height="40" as="geometry" />
        </mxCell>
        <mxCell id="jdZAZop807KCjGfxknlb-11" value="" style="ellipse;whiteSpace=wrap;html=1;aspect=fixed;" vertex="1" parent="jdZAZop807KCjGfxknlb-10">
          <mxGeometry width="40" height="40" as="geometry" />
        </mxCell>
        <mxCell id="jdZAZop807KCjGfxknlb-12" value="q2" style="ellipse;whiteSpace=wrap;html=1;aspect=fixed;" vertex="1" parent="jdZAZop807KCjGfxknlb-10">
          <mxGeometry x="5" y="5" width="30" height="30" as="geometry" />
        </mxCell>
        <mxCell id="jdZAZop807KCjGfxknlb-13" value="" style="endArrow=classic;html=1;rounded=0;" edge="1" parent="1" source="jdZAZop807KCjGfxknlb-8" target="jdZAZop807KCjGfxknlb-11">
          <mxGeometry width="50" height="50" relative="1" as="geometry">
            <mxPoint x="-610" y="430" as="sourcePoint" />
            <mxPoint x="-610" y="490" as="targetPoint" />
          </mxGeometry>
        </mxCell>
        <mxCell id="jdZAZop807KCjGfxknlb-14" value=";" style="text;html=1;align=center;verticalAlign=middle;resizable=0;points=[];autosize=1;strokeColor=none;fillColor=none;" vertex="1" parent="1">
          <mxGeometry x="-645" y="460" width="30" height="30" as="geometry" />
        </mxCell>
        <mxCell id="jdZAZop807KCjGfxknlb-16" value="" style="endArrow=classic;html=1;rounded=0;" edge="1" parent="1" target="jdZAZop807KCjGfxknlb-8">
          <mxGeometry width="50" height="50" relative="1" as="geometry">
            <mxPoint x="-700" y="490" as="sourcePoint" />
            <mxPoint x="-420" y="430" as="targetPoint" />
          </mxGeometry>
        </mxCell>
        <mxCell id="jdZAZop807KCjGfxknlb-22" value="&lt;p style=&quot;margin-bottom:0cm&quot; class=&quot;MsoNormal&quot;&gt;Simbol terminal: &quot;for&quot;, &quot;;&quot;,&lt;br/&gt;&quot;=&quot;, &quot;++&quot;, &quot;--&quot;, &quot;{&quot;, &quot;}&quot;, &quot;==&quot;,&lt;br/&gt;&quot;!=&quot;, &quot;&amp;gt;&quot;, &quot;&amp;lt;&quot;, &quot;&amp;gt;=&quot;, &quot;&amp;lt;=&quot;,&lt;br/&gt;&quot;a&quot;, &quot;b&quot;, &quot;c&quot;, &quot;0&quot;, &quot;1&quot;,&lt;br/&gt;&quot;2&quot;, &quot;true&quot;, &quot;false&quot;, &quot;fmt.Print(a)&quot;, &quot;a=a+b&quot;&lt;/p&gt;" style="text;html=1;align=center;verticalAlign=middle;resizable=0;points=[];autosize=1;strokeColor=none;fillColor=none;" vertex="1" parent="1">
          <mxGeometry x="-740" y="150" width="240" height="100" as="geometry" />
        </mxCell>
        <mxCell id="jdZAZop807KCjGfxknlb-23" value="" style="curved=1;endArrow=classic;html=1;rounded=0;" edge="1" parent="1" source="qqYguHeqG1et18vwYGOu-93" target="qqYguHeqG1et18vwYGOu-93">
          <mxGeometry width="50" height="50" relative="1" as="geometry">
            <mxPoint x="-750" y="350" as="sourcePoint" />
            <mxPoint x="-700" y="300" as="targetPoint" />
            <Array as="points">
              <mxPoint x="-710" y="350" />
              <mxPoint x="-760" y="350" />
            </Array>
          </mxGeometry>
        </mxCell>
        <mxCell id="jdZAZop807KCjGfxknlb-24" value="Text" style="text;html=1;strokeColor=none;fillColor=none;align=center;verticalAlign=middle;whiteSpace=wrap;rounded=0;" vertex="1" parent="1">
          <mxGeometry x="-775" y="310" width="60" height="30" as="geometry" />
        </mxCell>
      </root>
    </mxGraphModel>
  </diagram>
</mxfile>
